<svg width="178" height="184" viewBox="0 0 178 184" fill="none" xmlns="http://www.w3.org/2000/svg">
<path fill-rule="evenodd" clip-rule="evenodd" d="M88.9703 99.6667H89.1187C109.6 99.6667 126.202 82.5048 126.202 61.3333C126.202 40.1618 109.6 23 89.1187 23H88.822C68.4781 23.1648 52.0353 40.2653 52.0353 61.3333C52.0353 82.4013 68.4781 99.5018 88.822 99.6667H88.9703ZM118.555 65.1667H111.139C110.99 67.8117 110.679 70.3762 110.23 72.8333H116.631C117.576 70.4183 118.233 67.8462 118.559 65.1667M112.281 80.5H108.276C107.516 82.7617 106.626 84.8815 105.621 86.825C108.138 85.0785 110.386 82.9457 112.281 80.5ZM102.665 72.8333C103.173 70.4298 103.533 67.8615 103.707 65.1667H92.827V72.8333H102.665ZM92.827 80.5H100.329C99.7666 81.876 99.1136 83.2106 98.3747 84.4943C96.5205 87.6798 94.6033 89.6502 92.827 90.7657V80.5ZM85.4103 72.8333V65.1667H74.2928C74.467 67.8615 74.8268 70.4298 75.3348 72.8333H85.4103ZM77.671 80.5H85.4103V90.9113C83.571 89.8227 81.5611 87.8255 79.6253 84.4943C78.8864 83.2106 78.2334 81.876 77.671 80.5ZM67.7698 72.8333C67.3101 70.3003 67.0067 67.7395 66.8613 65.1667H59.6819C60.0045 67.8462 60.6609 70.4183 61.6103 72.8333H67.7698ZM65.9601 80.5H69.7278C70.4509 82.662 71.3001 84.6937 72.2495 86.5605C69.8809 84.8649 67.7624 82.8235 65.9601 80.5ZM111.139 57.5C110.993 54.9272 110.689 52.3665 110.23 49.8333H116.631C117.576 52.2483 118.233 54.8205 118.559 57.5H111.139ZM112.277 42.1667H108.272C107.548 39.9899 106.661 37.8751 105.617 35.8417C108.135 37.5879 110.381 39.7207 112.277 42.1667ZM92.827 42.1667H100.329C99.7666 40.7906 99.1136 39.4561 98.3747 38.1723C96.5205 34.983 94.6033 33.0165 92.827 31.901V42.1667ZM102.665 49.8333H92.827V57.5H103.707C103.543 54.9214 103.195 52.3589 102.665 49.8333ZM85.4103 31.7553V42.1667H77.671C78.2644 40.7215 78.9245 39.3837 79.6253 38.1723C81.5574 34.8412 83.571 32.844 85.4103 31.7553ZM85.4103 49.8333H75.3348C74.8052 52.3589 74.4569 54.9214 74.2928 57.5H85.4103V49.8333ZM72.2458 36.1062C71.2605 38.0587 70.4177 40.0845 69.7241 42.1667H65.9601C67.7625 39.8432 69.8772 37.8018 72.2458 36.1062ZM67.7735 49.8333H61.6103C60.6474 52.2912 59.9991 54.8686 59.6819 57.5H66.865C67.0133 54.855 67.3248 52.2905 67.7735 49.8333Z" fill="#4D4D4D"/>
<path d="M37.4875 125.047C39.5902 127.355 41.678 129.647 43.6434 132.56V138H71.2074V132.56C70.7142 128.328 69.8465 120.704 69.7686 118.584C69.6647 115.602 65.7932 110.166 65.7932 110.166L53.908 94.6795C53.908 94.6795 50.5446 91.0071 48.62 86.9361C46.6916 82.8613 42.5976 87.9865 42.0562 91.6511C41.5074 95.3158 42.5457 97.2478 42.5457 97.2478L49.332 111.193C49.332 111.193 41.4629 100.05 39.0191 95.5726C37.7805 93.3033 37.4356 88.4963 37.0462 83.1258C36.6717 77.8933 36.2564 72.1241 34.9399 67.6391C32.2699 58.5541 24.5492 60.8273 23.2105 64.8906C21.8755 68.9501 22.1758 95.7796 22.6616 100.253C23.0436 103.757 25.0869 107.184 27.3897 111.048C28.0276 112.121 28.6877 113.225 29.3366 114.371C31.9176 118.941 34.7137 122.011 37.4875 125.047ZM134.364 132.56C136.329 129.647 138.417 127.355 140.52 125.047C143.294 122.011 146.09 118.941 148.674 114.371C149.32 113.221 149.98 112.121 150.618 111.052C152.921 107.188 154.964 103.757 155.346 100.253C155.832 95.7796 156.136 68.9501 154.797 64.8906C153.458 60.8273 145.738 58.5541 143.068 67.643C141.755 72.128 141.339 77.8933 140.961 83.1258C140.572 88.4963 140.227 93.3033 138.988 95.5726C136.545 100.054 128.672 111.193 128.672 111.193L135.462 97.2478C135.462 97.2478 136.5 95.3158 135.955 91.6511C135.41 87.9865 131.316 82.8613 129.391 86.9361C127.463 91.0071 124.099 94.6795 124.099 94.6795L112.214 110.166C112.214 110.166 108.343 115.602 108.239 118.584C108.165 120.704 107.293 128.328 106.8 132.56V138H134.364V132.56ZM96.4167 157.167C96.4167 158.183 96.8074 159.158 97.5028 159.877C98.1983 160.596 99.1415 161 100.125 161H129.792C130.775 161 131.718 160.596 132.414 159.877C133.109 159.158 133.5 158.183 133.5 157.167V149.5C133.5 148.483 133.109 147.508 132.414 146.789C131.718 146.07 130.775 145.667 129.792 145.667H100.125C99.1415 145.667 98.1983 146.07 97.5028 146.789C96.8074 147.508 96.4167 148.483 96.4167 149.5V157.167ZM81.5907 157.167C81.5907 158.183 81.2 159.158 80.5046 159.877C79.8092 160.596 78.8659 161 77.8824 161H48.2157C47.2322 161 46.289 160.596 45.5936 159.877C44.8981 159.158 44.5074 158.183 44.5074 157.167V149.5C44.5074 148.483 44.8981 147.508 45.5936 146.789C46.289 146.07 47.2322 145.667 48.2157 145.667H77.8824C78.8659 145.667 79.8092 146.07 80.5046 146.789C81.2 147.508 81.5907 148.483 81.5907 149.5V157.167Z" fill="#4D4D4D"/>
</svg>
