<svg width="156" height="156" viewBox="0 0 156 156" fill="none" xmlns="http://www.w3.org/2000/svg">
<path d="M29.25 29.25C29.25 24.0783 31.3045 19.1184 34.9614 15.4614C38.6184 11.8045 43.5783 9.75 48.75 9.75C53.9217 9.75 58.8816 11.8045 62.5386 15.4614C66.1955 19.1184 68.25 24.0783 68.25 29.25C68.25 34.4217 66.1955 39.3816 62.5386 43.0386C58.8816 46.6955 53.9217 48.75 48.75 48.75C43.5783 48.75 38.6184 46.6955 34.9614 43.0386C31.3045 39.3816 29.25 34.4217 29.25 29.25ZM95.3453 44.694L95.7548 45.006C99.8916 48.0724 105.073 49.3781 110.169 48.638C115.265 47.8979 119.862 45.1722 122.955 41.0556C126.049 36.9391 127.389 31.766 126.682 26.6653C125.976 21.5645 123.281 16.9503 119.185 13.8295C115.089 10.7087 109.924 9.33481 104.819 10.0076C99.7139 10.6803 95.082 13.3451 91.9342 17.4205C88.7865 21.4958 87.3785 26.6508 88.0175 31.7604C88.6566 36.87 91.2908 41.5194 95.3453 44.694ZM61.113 58.5C62.3376 56.1811 64.0174 54.133 66.0518 52.4783C68.0863 50.8236 70.4335 49.5962 72.9533 48.8696C75.473 48.143 78.1134 47.9321 80.7165 48.2496C83.3197 48.567 85.832 49.4062 88.1033 50.717C90.3746 52.0278 92.3582 53.7833 93.9353 55.8784C95.5125 57.9736 96.6509 60.3653 97.2824 62.9105C97.9139 65.4557 98.0255 68.1022 97.6105 70.6916C97.1956 73.2809 96.2627 75.76 94.8675 77.9805C92.1835 82.2522 87.9484 85.3175 83.0519 86.5324C78.1554 87.7472 72.9786 87.0171 68.6091 84.4953C64.2396 81.9736 61.0175 77.8565 59.6196 73.0091C58.2218 68.1616 58.7571 62.9611 61.113 58.5ZM24.375 58.5H50.4075C48.6747 63.4487 48.2979 68.771 49.3163 73.9144C50.3347 79.0579 52.7112 83.835 56.199 87.75H53.625C48.5983 87.7493 43.6941 89.3021 39.5839 92.1958C35.4736 95.0896 32.3581 99.1829 30.6637 103.915C27.391 102.601 24.3267 100.817 21.567 98.6212C14.235 92.7225 9.75 84.006 9.75 73.125C9.75 69.2462 11.2908 65.5263 14.0336 62.7836C16.7763 60.0408 20.4962 58.5 24.375 58.5ZM102.375 87.75C112.954 87.75 121.963 94.4872 125.336 103.915C128.651 102.56 131.713 100.795 134.433 98.6212C141.765 92.7225 146.25 84.006 146.25 73.125C146.25 69.2462 144.709 65.5263 141.966 62.7836C139.224 60.0408 135.504 58.5 131.625 58.5H105.592C106.665 61.5517 107.25 64.8375 107.25 68.25C107.259 75.4466 104.606 82.3922 99.801 87.75H102.375ZM115.898 106.548C116.61 108.264 117 110.155 117 112.125C117 123.006 112.525 131.722 105.183 137.621C97.9583 143.422 88.2667 146.25 78 146.25C67.7333 146.25 58.0417 143.422 50.817 137.621C43.485 131.722 39 123.006 39 112.125C38.9949 110.203 39.3696 108.299 40.1028 106.522C40.8359 104.745 41.913 103.131 43.2721 101.772C44.6312 100.413 46.2455 99.3359 48.0222 98.6028C49.7989 97.8696 51.703 97.4949 53.625 97.5H102.375C105.272 97.4993 108.103 98.3589 110.511 99.9698C112.919 101.581 114.794 103.87 115.898 106.548Z" fill="#4D4D4D"/>
</svg>
