<svg width="156" height="156" viewBox="0 0 156 156" fill="none" xmlns="http://www.w3.org/2000/svg">
<path d="M136.5 58.5C136.5 58.5 136.5 64.0282 134.233 71.2968L108.971 46.0395C107.601 44.6677 105.742 43.8962 103.803 43.8945H81.3638C79.7285 43.8956 78.1408 44.4449 76.8544 45.4545L67.9965 52.3867C67.3886 52.863 66.6927 53.2148 65.9487 53.4219C65.2047 53.629 64.4271 53.6873 63.6606 53.5936C62.894 53.4999 62.1534 53.2559 61.4812 52.8757C60.809 52.4954 60.2184 51.9863 59.7431 51.3776C58.7829 50.1465 58.3499 48.5849 58.539 47.0351C58.7282 45.4852 59.5241 44.0736 60.7523 43.1096L90.9773 19.5H97.5C107.843 19.5 117.763 23.6089 125.077 30.9228C132.391 38.2367 136.5 48.1565 136.5 58.5ZM35.997 74.7337C35.5093 74.2448 34.9299 73.8569 34.2921 73.5922C33.6542 73.3275 32.9704 73.1913 32.2798 73.1913C31.5892 73.1913 30.9054 73.3275 30.2676 73.5922C29.6297 73.8569 29.0503 74.2448 28.5626 74.7337L21.0356 82.29C20.0491 83.2804 19.4951 84.6214 19.4951 86.0194C19.4951 87.4173 20.0491 88.7583 21.0356 89.7487C21.5233 90.2376 22.1027 90.6256 22.7406 90.8902C23.3784 91.1549 24.0622 91.2911 24.7528 91.2911C25.4434 91.2911 26.1272 91.1549 26.7651 90.8902C27.4029 90.6256 27.9823 90.2376 28.47 89.7487L35.997 82.1925C36.9833 81.2029 37.5371 79.8627 37.5371 78.4655C37.5371 77.0684 36.9833 75.7282 35.997 74.7386M43.7775 84.9225C44.265 84.4322 44.8445 84.0432 45.4829 83.7777C46.1212 83.5122 46.8058 83.3756 47.4971 83.3756C48.1885 83.3756 48.873 83.5122 49.5114 83.7777C50.1497 84.0432 50.7293 84.4322 51.2167 84.9225C52.2018 85.9127 52.7548 87.2527 52.7548 88.6494C52.7548 90.0462 52.2018 91.3861 51.2167 92.3763L43.68 99.918C43.1926 100.407 42.6134 100.796 41.9755 101.061C41.3376 101.326 40.6536 101.462 39.9628 101.462C39.272 101.462 38.5881 101.326 37.9502 101.061C37.3123 100.796 36.733 100.407 36.2456 99.918C35.2606 98.9277 34.7076 97.5878 34.7076 96.191C34.7076 94.7943 35.2606 93.4543 36.2456 92.4641L43.7775 84.9225ZM63.8479 97.5829C63.3602 97.0939 62.7808 96.706 62.1429 96.4413C61.5051 96.1767 60.8213 96.0404 60.1307 96.0404C59.4401 96.0404 58.7563 96.1767 58.1184 96.4413C57.4806 96.706 56.9012 97.0939 56.4135 97.5829L48.8865 105.129C47.8988 106.119 47.344 107.46 47.344 108.859C47.344 110.257 47.8988 111.598 48.8865 112.588C49.3739 113.078 49.9532 113.466 50.5911 113.731C51.229 113.996 51.9129 114.133 52.6037 114.133C53.2945 114.133 53.9784 113.996 54.6163 113.731C55.2542 113.466 55.8335 113.078 56.3209 112.588L63.8479 105.037C64.8344 104.046 65.3884 102.705 65.3884 101.307C65.3884 99.9094 64.8344 98.5733 63.8479 97.5829ZM76.4741 110.233C75.9867 109.743 75.4071 109.354 74.7687 109.089C74.1304 108.823 73.4459 108.687 72.7545 108.687C72.0631 108.687 71.3786 108.823 70.7403 109.089C70.1019 109.354 69.5223 109.743 69.0349 110.233L61.5079 117.785C60.5228 118.775 59.9698 120.115 59.9698 121.512C59.9698 122.909 60.5228 124.248 61.5079 125.239C61.9953 125.728 62.5745 126.117 63.2124 126.382C63.8503 126.647 64.5343 126.783 65.2251 126.783C65.9158 126.783 66.5998 126.647 67.2377 126.382C67.8756 126.117 68.4549 125.728 68.9423 125.239L76.4693 117.687C77.4555 116.698 78.0093 115.358 78.0093 113.96C78.0093 112.563 77.4555 111.223 76.4693 110.233M73.3151 20.9235C70.7476 20.1634 68.1039 19.6893 65.4323 19.5097C65.2861 19.5018 65.1398 19.4985 64.9935 19.5H63.375C53.0316 19.5 43.1118 23.6089 35.7978 30.9228C28.4839 38.2367 24.375 48.1565 24.375 58.5V68.6741C26.7858 66.7154 29.8377 65.7213 32.9396 65.8843C36.0414 66.0474 38.9723 67.3559 41.1645 69.5565C43.0804 71.4821 44.2504 73.8757 44.6696 76.3717C46.5191 75.9481 48.4405 75.9484 50.2899 76.3726C52.1392 76.7968 53.8687 77.6339 55.3486 78.8212C56.8286 80.0086 58.0208 81.5154 58.8358 83.2288C59.6509 84.9422 60.0677 86.8179 60.0551 88.7152C61.7183 88.7075 63.3666 89.0296 64.9044 89.6631C66.4423 90.2966 67.8392 91.2288 69.0144 92.4058C70.1895 93.5828 71.1196 94.9812 71.7507 96.52C72.3818 98.0588 72.7015 99.7075 72.6911 101.371C74.3506 101.362 75.9953 101.683 77.5294 102.316C79.0636 102.948 80.4565 103.88 81.627 105.056C83.983 107.422 85.3057 110.624 85.3057 113.963C85.3057 117.301 83.983 120.504 81.627 122.869L80.5301 123.971L86.7409 130.133C87.7251 131.103 89.0516 131.647 90.4337 131.647C91.8158 131.647 93.1423 131.103 94.1265 130.133C96.1448 128.134 96.1496 124.897 94.1362 122.894C93.4445 122.208 93.0536 121.275 93.0495 120.301C93.0454 119.327 93.4284 118.391 94.1143 117.7C94.8002 117.008 95.7328 116.617 96.7069 116.613C97.6811 116.609 98.6169 116.992 99.3086 117.678C100.293 118.648 101.619 119.192 103.001 119.192C104.383 119.192 105.71 118.648 106.694 117.678C107.174 117.204 107.554 116.64 107.814 116.019C108.074 115.397 108.208 114.73 108.209 114.056C108.209 113.383 108.076 112.716 107.817 112.094C107.558 111.472 107.178 110.907 106.699 110.433C106.051 109.739 105.697 108.82 105.712 107.87C105.726 106.92 106.108 106.012 106.777 105.338C107.446 104.663 108.35 104.274 109.3 104.251C110.25 104.229 111.171 104.575 111.872 105.217C112.857 106.185 114.183 106.726 115.564 106.724C116.945 106.722 118.27 106.177 119.252 105.207C121.319 103.16 121.31 99.8351 119.335 97.8705L119.321 97.8607L108.337 86.8725C107.691 86.1794 107.34 85.2626 107.356 84.3154C107.373 83.3682 107.757 82.4645 108.427 81.7946C109.097 81.1247 110 80.741 110.948 80.7242C111.895 80.7075 112.812 81.0591 113.505 81.705L126.355 94.5408C128.924 97.0905 133.161 97.1149 135.388 94.9065C137.607 92.7079 137.587 88.5348 135.042 86.0047L135.033 85.995L102.682 53.6494H82.2071L74.0074 60.0648C72.3911 61.3296 70.5414 62.2636 68.564 62.8134C66.5867 63.3631 64.5204 63.5179 62.4832 63.2689C60.446 63.02 58.4778 62.372 56.691 61.3622C54.9043 60.3524 53.334 59.0004 52.0699 57.3836C49.5157 54.1156 48.3634 49.9673 48.8661 45.8502C49.3689 41.733 51.4856 37.9839 54.7511 35.4266L73.3151 20.9235Z" fill="#4D4D4D"/>
</svg>
