<svg width="176" height="156" viewBox="0 0 176 156" fill="none" xmlns="http://www.w3.org/2000/svg">
<g clip-path="url(#clip0_555_1291)">
<path d="M92.2594 95.0625C102.04 82.8445 124.312 53.1984 124.312 36.5625C124.312 16.3617 107.951 0 87.75 0C67.5492 0 51.1875 16.3617 51.1875 36.5625C51.1875 53.1984 73.4602 82.8445 83.2406 95.0625C85.5867 97.9875 89.9437 97.9875 92.2594 95.0625ZM126.75 153.258L170.899 135.586C173.672 134.489 175.5 131.777 175.5 128.791V46.3125C175.5 41.1328 170.29 37.5984 165.476 39.518L130.132 53.6555C129.98 54.0211 129.827 54.4172 129.675 54.7828C128.791 56.8547 127.816 58.957 126.75 61.0594V153.258ZM4.60078 57.068C1.82812 58.1953 0 60.8766 0 63.8625V146.372C0 151.552 5.21016 155.086 10.0242 153.166L48.75 137.658V61.0594C47.6836 58.957 46.7086 56.8547 45.825 54.7828C44.1187 50.7609 42.6563 46.4344 41.925 42.1383L4.57031 57.068H4.60078ZM117 77.6953C110.754 87.232 104.112 95.8547 99.8766 101.156C93.6305 108.956 81.8695 108.956 75.6234 101.156C71.3883 95.8547 64.7461 87.232 58.5 77.6953V136.927L117 153.654V77.6953Z" fill="#4D4D4D"/>
</g>
<defs>
<clipPath id="clip0_555_1291">
<rect width="175.5" height="156" fill="white"/>
</clipPath>
</defs>
</svg>
