<svg width="156" height="156" viewBox="0 0 156 156" fill="none" xmlns="http://www.w3.org/2000/svg">
<path d="M58.5 84.5V32.5C58.5 25.35 64.35 19.5 71.5 19.5H130C137.15 19.5 143 25.35 143 32.5V71.5H120.705L112.385 60.19C112.304 60.0554 112.19 59.944 112.053 59.8667C111.916 59.7894 111.762 59.7487 111.605 59.7487C111.448 59.7487 111.294 59.7894 111.157 59.8667C111.02 59.944 110.906 60.0554 110.825 60.19L97.89 78C97.5 78.39 96.72 78.455 96.33 78L87.035 66.625C86.9423 66.5177 86.8275 66.4316 86.6985 66.3726C86.5695 66.3136 86.4293 66.2831 86.2875 66.2831C86.1457 66.2831 86.0055 66.3136 85.8765 66.3726C85.7475 66.4316 85.6327 66.5177 85.54 66.625L71.825 83.915C71.305 84.5 71.76 85.475 72.54 85.475H113.75V97.5H71.5C64.285 97.5 58.5 91.715 58.5 84.5ZM39 143V136.5H26V143H13V13H26V19.5H39V13H54.535C49.01 17.81 45.5 24.7 45.5 32.5V84.5C45.5 98.865 57.135 110.5 71.5 110.5H102.05C95.355 115.895 91 124.02 91 133.25C91 136.695 91.715 139.945 92.82 143H39ZM26 45.5H39V32.5H26V45.5ZM26 71.5H39V58.5H26V71.5ZM26 97.5H39V84.5H26V97.5ZM39 123.5V110.5H26V123.5H39ZM149.5 84.5V97.5H136.5V133.25C136.5 137.56 134.788 141.693 131.74 144.74C128.693 147.788 124.56 149.5 120.25 149.5C115.94 149.5 111.807 147.788 108.76 144.74C105.712 141.693 104 137.56 104 133.25C104.001 130.553 104.674 127.898 105.958 125.525C107.242 123.153 109.096 121.137 111.353 119.66C113.61 118.183 116.2 117.292 118.888 117.066C121.576 116.839 124.278 117.286 126.75 118.365V84.5H149.5Z" fill="#4D4D4D"/>
</svg>
